<svg id="Layer_1" data-name="Layer 1" xmlns="http://www.w3.org/2000/svg" viewBox="0 0 213.49 209.78"><defs><style>.cls-1{fill:#fff;}</style></defs><title>Glucc_logo1</title><path class="cls-1" d="M178.9,172.33c-9.16,13.84-29,22.29-48,16.19-18.46-6-33.06-27.26-27.14-51.21-2.18-.93-4.38-1.78-6.5-2.79a38.89,38.89,0,0,1-9.06-6.14,1.43,1.43,0,0,1-.53-1.57,29,29,0,0,1,5.49-12.11,27.84,27.84,0,0,0,14.75,10.17,28.33,28.33,0,0,0,18-.76c-1.23,1.4-2.45,2.58-3.44,3.93-7.84,10.69-9.69,22.19-3.53,34.15,5.53,10.76,14.74,15.95,26.93,15.34a29.54,29.54,0,0,0,14.89-5.09,2.2,2.2,0,0,1,1.45-.38,49.19,49.19,0,0,0,15.22.4C177.89,172.41,178.31,172.38,178.9,172.33Z" transform="translate(-37.15 -41.82)"/><path class="cls-1" d="M144.58,69.2c1.06-.89,2.11-1.81,3.2-2.67a41.52,41.52,0,0,1,13.14-7,1.56,1.56,0,0,1,1.25.08A30,30,0,0,1,170,70.72a29.11,29.11,0,0,0-16.86,8.18A32.64,32.64,0,0,0,144,95.49l-.48-2.25a28.66,28.66,0,0,0-23.17-22.65A27.73,27.73,0,0,0,87.91,95a65.26,65.26,0,0,0,.13,7.39,1.36,1.36,0,0,1-.3.92,33.84,33.84,0,0,0-8.76,12c0,.08-.14.14-.22.21a40.72,40.72,0,0,1,9.95-48.15C103.55,54.43,128.07,52.84,144.58,69.2Z" transform="translate(-37.15 -41.82)"/><path class="cls-1" d="M164.07,124.09a30.08,30.08,0,0,0,10.54,1.56A27.55,27.55,0,0,0,200.84,101c1.09-12.32-5-22.73-16.33-27.93a1.68,1.68,0,0,1-.88-.92,39.14,39.14,0,0,0-5.87-13.77.66.66,0,0,1-.06-.2c3-.31,11.16,2.09,16.33,5.21A39.71,39.71,0,0,1,212,85.67a40.46,40.46,0,0,1-26.09,51c.34,2.52.75,5,1,7.54a38.14,38.14,0,0,1-.56,10.39,1.21,1.21,0,0,1-.5.76,27.17,27.17,0,0,1-14.23,3.82C176.78,145.88,173.59,134.42,164.07,124.09Z" transform="translate(-37.15 -41.82)"/><path class="cls-1" d="M144.9,158c-2.88,2.27-5.55,4.7-8.54,6.63a83.4,83.4,0,0,1-8.79,4.48,1.18,1.18,0,0,1-1-.07,25.76,25.76,0,0,1-6.26-8.25c13.39-3.16,21.31-11.55,24.28-24.89.09.26.19.52.28.8a41.81,41.81,0,0,0,8.8,16.33c5.21,5.77,11.77,8.25,19.42,8,12-.4,26.14-8.87,28.55-25.33.3-2,.18-4.15.29-6.23a2.1,2.1,0,0,1,.4-1.23,49.8,49.8,0,0,0,7.17-9.25,7.38,7.38,0,0,1,.48-.62c.57,2.56,1.27,4.86,1.58,7.2,1.77,13.41-2.07,25-11.76,34.47a38.63,38.63,0,0,1-27,11.11c-11.4.26-20.5-4.25-27.7-12.93Z" transform="translate(-37.15 -41.82)"/><path class="cls-1" d="M195.39,112.81c-8-9-18.37-11.33-29.89-10.68C166.25,101,167,100,167.64,99c2.56-4.21,4.85-8.51,5.45-13.53C174.23,76.05,171.42,68,165,61.1a29.33,29.33,0,0,0-37-4.72,2.56,2.56,0,0,1-2.2.37,37.76,37.76,0,0,0-11.4-1.18,3.71,3.71,0,0,1-.54,0C122.39,44.89,139.79,38,157,44.16a40.55,40.55,0,0,1,22.37,19.32c5.12,9.36,4.9,19.25,2.46,29.37.33.11.66.22,1,.31a40.15,40.15,0,0,1,16.39,9.13,1.41,1.41,0,0,1,.5,1.66C198.82,107.12,196.88,111.18,195.39,112.81Z" transform="translate(-37.15 -41.82)"/><path class="cls-1" d="M123,102.84a29.93,29.93,0,0,0-15.38.53c-10.5,3.35-16.92,10.7-20.07,21-3.65,12,.78,21.36,9.67,29.2,1.23,1.09,2.68,1.93,4,2.92a1.86,1.86,0,0,1,.75.93,53.41,53.41,0,0,0,4.14,11.85,3.16,3.16,0,0,1,.1.57c-2-.79-3.85-1.39-5.59-2.26-12.21-6.12-20.36-15.67-23-29.15C75.15,125.92,78.1,114.55,87,105a45.63,45.63,0,0,1,18.47-12.12c-.36-1.78-.77-3.51-1.06-5.26a38.56,38.56,0,0,1,.1-13,1.38,1.38,0,0,1,.6-.91,23.64,23.64,0,0,1,10.51-2.23C111.88,83.39,114.62,93.66,123,102.84Z" transform="translate(-37.15 -41.82)"/><path class="cls-1" d="M144.38,125.45a9,9,0,1,1,9-8.92A8.95,8.95,0,0,1,144.38,125.45Z" transform="translate(-37.15 -41.82)"/><path class="cls-1" d="M106.29,206.2V212c0,1.83,0,3.66,0,5.49,0,1.26.2,1.46,1.41,1.46h32.18a12.53,12.53,0,0,0,1.4-.16,4.52,4.52,0,0,0-2.27-3.11c-1-.57-.86-1.47-.7-2.26.09-.42.69-.86,1.15-1a9.82,9.82,0,0,1,5.57-.48,3.46,3.46,0,0,1,2.8,3.06c.15,1.81-.89,2.66-1.87,4,1.53,0,3,0,4.48,0,.85,0,.82-.8.83-1.39,0-2.48,0-5,0-7.44v-3.79h2.38c0,.31.07.66.07,1,0,3.62,0,7.24,0,10.86a3,3,0,0,1-3,3,35.19,35.19,0,0,1-5.24-.06,30.91,30.91,0,0,0-5,0c-11.44.09-22.88,0-34.32,0-1.52,0-2.2-.56-2.28-2.12-.12-2.43-.09-4.88-.11-7.32,0-1.43.06-2.87,0-4.3,0-1,.26-1.32,1.21-1.19A9.28,9.28,0,0,0,106.29,206.2Zm37.1,11.62A12.69,12.69,0,0,0,144.8,216a1.48,1.48,0,0,0-1.21-2.36,18.28,18.28,0,0,0-3,.12Z" transform="translate(-37.15 -41.82)"/><path class="cls-1" d="M143.29,238.14c2.55-.38,2.55-.38,2.55,1.92,0,1.11,0,2.22,0,3.34a1.31,1.31,0,0,0,1.28,1.45,10.7,10.7,0,0,0,2,0c.9-.06,1-.78,1-1.43,0-1.43,0-2.87,0-4.31,0-.35,0-.7.05-1.21.92.31,2-.58,2.54.51a41.4,41.4,0,0,1,5.67-.7c3,0,4.55,1.73,4.68,4.7.1,2.2,1.54,3.19,3.61,2.37a1.66,1.66,0,0,0,.64-1.29c.06-3.34,0-6.68,0-10v-1.23h2.43c0,.39.06.73.06,1.08,0,3.63,0,7.25,0,10.88,0,2.27-.69,2.92-3,2.93h-1.42a3.1,3.1,0,0,1-2.9-1.28c-.94,1.28-2.3,1.27-3.59,1.26-2.36,0-4.71-.22-7.07-.25-1.22,0-2.45.28-3.67.24a15.36,15.36,0,0,1-2.83-.64,5.26,5.26,0,0,1-1.67.58,36.6,36.6,0,0,1-4.8,0,1.92,1.92,0,0,1-2.08-2c0-4.23,0-8.47,0-12.66.11-.09.16-.17.22-.17,2.26-.23,2.26-.23,2.26,2q0,4.57,0,9.15c0,1.3.19,1.47,1.53,1.49,2.55,0,2.55,0,2.55-2.54Zm9,6.67c2.15,0,4.21,0,6.26,0a1.51,1.51,0,0,0,1.1-.57,2.87,2.87,0,0,0-2.17-4.33,12.4,12.4,0,0,0-3.57.49c-1.64.44-1.62.52-1.62,2.18Z" transform="translate(-37.15 -41.82)"/><path class="cls-1" d="M177,206.27h2.45c0,.42.06.81.06,1.2q0,5.11,0,10.24c0,1.38.15,1.52,1.51,1.52h38.54c1.45,0,1.83-.35,1.85-1.69s-.12-2.51-1.37-3.14c-1.43-.72-2.7-.17-3.8.81a1.1,1.1,0,0,1-.24-.08c-1.56-1.39-1.54-1.63.26-2.68a5.11,5.11,0,0,1,7.82,4.37c0,.8-.18,1.87.75,2.11a11.39,11.39,0,0,0,3.55.13c.21,0,.48-.93.49-1.43.07-1.76,0-3.52,0-5.36h2.41c0,2.49.06,5,0,7.46a1.75,1.75,0,0,1-1.82,1.72,30.7,30.7,0,0,1-4.07,0,7.52,7.52,0,0,1-2-.86,3.51,3.51,0,0,1-2.9,1h-40.8a2.78,2.78,0,0,1-2.79-2.77c0-3.84,0-7.67,0-11.51C177,206.93,177,206.65,177,206.27Z" transform="translate(-37.15 -41.82)"/><path class="cls-1" d="M216.78,231.27h2.45c0,1.35.05,1.73.05,2.11,0,3.31,0,6.61,0,9.91,0,1.41.15,1.55,1.54,1.56,2.08,0,4.16,0,6.24,0,1.27,0,1.58-.33,1.62-1.61s-.05-2.45-1.28-3.1a3,3,0,0,0-3.48.56,3.34,3.34,0,0,1-.42.28l-1.35-1.42c1.5-2,3.48-2.2,5.64-1.79a4.28,4.28,0,0,1,3.42,3.82c.1.59.06,1.22.2,1.81.09.41.33,1.1.58,1.13a20.57,20.57,0,0,0,3.59.18c.17,0,.43-.63.46-1,.08-1,.07-2,.08-3,0-.85,0-1.71,0-2.51.14-.1.19-.17.25-.18,2.21-.25,2.21-.25,2.21,1.93,0,1.11,0,2.22,0,3.34a1.39,1.39,0,0,0,1.42,1.54c2.61.34,2.84.14,3.29-2.48V232.27h2c0,.32.06.66.06,1v10.87c0,2.25-.71,3-3,2.95-1.41,0-2.91.31-4-.88-2,1.41-6.11,1.27-7.23,0a16.17,16.17,0,0,1-3.26.84c-2.79.11-5.59.05-8.39,0-1.8,0-2.62-.69-2.65-2.4C216.74,240.58,216.78,236.45,216.78,231.27Z" transform="translate(-37.15 -41.82)"/><path class="cls-1" d="M81.64,206.27c0,.35.07.63.07.92,0,3.82,0,7.64,0,11.45,0,2.33-.64,3-2.84,3a35.87,35.87,0,0,1-5.29-.06,16,16,0,0,0-4.93,0,21,21,0,0,1-3.8,0,13.26,13.26,0,0,1-1.72-.3c-.24,1.45,0,3.31-1.52,4.22a12.88,12.88,0,0,1-3.31.92v-2.37c2.2-.59,2.27-.66,2.29-3.13s0-5,0-7.45c0-.4,0-.79,0-1.22h2.42c0,1.78,0,3.51,0,5.24,0,1.34.41,1.79,1.71,1.81,1.53,0,3.06,0,4.7,0a4.86,4.86,0,0,0-2.28-3.38c-1-.59-.85-1.52-.69-2.33.09-.43.68-.89,1.14-1.09a9.25,9.25,0,0,1,5.5-.49,3.41,3.41,0,0,1,2.38,5.15A16.65,16.65,0,0,1,74,219.31c1.52,0,3,.05,4.44,0,.83,0,.8-.83.81-1.44,0-2.56,0-5.12,0-7.67v-3.92Zm-9.75,11.59a14.56,14.56,0,0,0,1.5-2.21,1.3,1.3,0,0,0-.74-1.87,4.54,4.54,0,0,0-3.46.09Z" transform="translate(-37.15 -41.82)"/><path class="cls-1" d="M44,245.84a14.66,14.66,0,0,1-3,.49c-2.65-.14-4-1.73-3.91-4.52s1.44-4.2,4-4.34c.84-.05,1.69,0,2.56,0l.22-1.19h2.46c0,2.12,0,4.19,0,6.26a5.23,5.23,0,0,0,.08,1.54,1.32,1.32,0,0,0,.84.81c1,.1,2.06,0,3.11,0-1.16-3.61-.68-5.7,1.54-6.9a5.8,5.8,0,0,1,7,1.42l-1.29,1.5a17.46,17.46,0,0,0-1.91-1,2.32,2.32,0,0,0-2.67.53,2.57,2.57,0,0,0-.4,2.91A2.24,2.24,0,0,0,55,245c1.4-.06,2.81,0,4.3,0v2.34H46.71C45.49,247.27,44.39,247,44,245.84Zm.16-6c-.77,0-1.44,0-2.11,0-1.32.08-1.86.77-1.83,2.25a1.7,1.7,0,0,0,1.82,1.9,1.83,1.83,0,0,0,2.12-1.88C44.24,241.4,44.19,240.69,44.19,239.83Z" transform="translate(-37.15 -41.82)"/><path class="cls-1" d="M126.17,244.27c-1.23-2.9-.79-5.09,1.16-6.27a5.33,5.33,0,0,1,6.64,1.12l-1.15,1.22a14,14,0,0,0-2.87-.84c-1.23-.08-2,.91-2,2.25a2.36,2.36,0,0,0,2.06,2.51c.72,0,1.44,0,2.16,0h2.1v2.09c-.29,0-.59.06-.89.06q-5.35,0-10.71,0c-1.15,0-2.23-.15-2.51-1.21a17.92,17.92,0,0,1-3.42.23c-2.08-.26-3-1.72-3-4.19,0-2.13,1.2-3.59,3.15-3.82a26.7,26.7,0,0,1,3,0l.18-1.14h2.33v5.64c0,2.44-.2,2.38,2.34,2.36C125.18,244.26,125.62,244.27,126.17,244.27Zm-6.78-4.45c-.77,0-1.41,0-2,0-1.35.06-1.91.72-1.9,2.17,0,1.27.57,1.91,1.74,2a1.85,1.85,0,0,0,2.2-1.9C119.43,241.37,119.39,240.66,119.39,239.82Z" transform="translate(-37.15 -41.82)"/><path class="cls-1" d="M38,213.27h2.36c0,1.25,0,2.49,0,3.74,0,1.51.19,1.67,1.66,1.67h5.86a26.65,26.65,0,0,1,0-4c.34-2.13,2.22-3.38,4.53-3.26,2.54.14,4,1.4,4.26,3.69a10.68,10.68,0,0,1,0,2,4.06,4.06,0,0,1-4,3.73c-4.22.07-8.45,0-12.68,0a1.8,1.8,0,0,1-2-1.77C37.89,217.19,38,215.26,38,213.27Zm16.32,2.84c0-.21,0-.43,0-.64a2,2,0,0,0-2.11-1.95,2,2,0,0,0-2,2.11c-.1,1.78.39,2.69,1.54,2.88C53.43,218.78,54.29,218,54.28,216.11Z" transform="translate(-37.15 -41.82)"/><path class="cls-1" d="M237.29,209.47a2.25,2.25,0,0,1,.41-.17c2.2-.22,2.2-.22,2.21,1.92q0,3.75,0,7.5a2,2,0,0,0,.14.3c.74,0,1.55,0,2.34,0s.88-.7.88-1.35V206.27h2.52a9.63,9.63,0,0,1,0,1.86,23.94,23.94,0,0,0-.28,5.54c.56,6.2.82,7.59-2.7,7.6h-9.55v-3h4Z" transform="translate(-37.15 -41.82)"/><path class="cls-1" d="M72.29,251.46v-1.94c3.06-.69,2.33-.84,2.49-6.27,0-1.25,0-2.52,0-3.77-.06-1.08.11-1.66,1.26-1.47a10.49,10.49,0,0,0,1.28,0v4.54c0,2,1.82,3.22,3.5,2.21a1.73,1.73,0,0,0,.48-1.28c0-3.33,0-6.67,0-10v-1.22h2.84c0,4.45,0,8.85,0,13.24A1.56,1.56,0,0,1,82.5,247c-1.71.08-3.42,0-5.16,0C76.85,250.91,75.88,251.84,72.29,251.46Z" transform="translate(-37.15 -41.82)"/><path class="cls-1" d="M98.29,251.48V249.3c1,0,1.91,0,2.85,0,1.38-.06,1.88-.68,1.74-2.1a34,34,0,0,1-4-.35,1.42,1.42,0,0,1-.42-.17c-2.21-1.38-2.14-3.46-1.83-5.51a3.9,3.9,0,0,1,3-3.4c3.45-.88,5.87,1,5.88,4.52,0,2.62,0,5.24,0,7.85a1.11,1.11,0,0,1-.91,1.06A32.56,32.56,0,0,1,98.29,251.48Zm4.77-6.65c0-.84,0-1.55,0-2.27a6.17,6.17,0,0,0,0-1,1.83,1.83,0,0,0-2.12-1.77c-1.18.09-1.94,1.14-2,2.67s.58,2.22,1.83,2.32C101.46,244.87,102.18,244.83,103.06,244.83Z" transform="translate(-37.15 -41.82)"/><path class="cls-1" d="M184.29,251.44V249.3c.93,0,1.85,0,2.76,0,1.42,0,1.89-.56,1.89-2.18h-2.09c-2.28,0-3.57-.79-4.12-2.43-.76-2.3-.11-5.08,1.45-6.24a5.5,5.5,0,0,1,5.61-.11,4.07,4.07,0,0,1,1.7,3.54c.06,2,0,4.09,0,6.14a3.16,3.16,0,0,1-3,3.41C187.12,251.54,185.75,251.44,184.29,251.44ZM189,244.8c0-1,0-1.91,0-2.84-.06-1.37-.74-2.11-1.91-2.14s-2.06.86-2.2,2.42.42,2.4,1.56,2.54A21.45,21.45,0,0,0,189,244.8Z" transform="translate(-37.15 -41.82)"/><path class="cls-1" d="M93,220c-2.53,1.24-.87,3.54-1.57,5.32H89.14a40,40,0,0,1,.06-4.77,2.89,2.89,0,0,1,1.28-1.71,2.61,2.61,0,0,0,1.33-2.46c-.07-3.75,2.3-5.58,6-4.71a3.45,3.45,0,0,1,2.55,2.11,6.55,6.55,0,0,1,0,5c-.91,2.28-4.41,3.15-6.67,1.71C93.47,220.32,93.24,220.14,93,220Zm5.54-3.67-.2-.1c0-.24,0-.5,0-.74a1.91,1.91,0,0,0-1.9-1.92,1.83,1.83,0,0,0-2.05,1.85,6,6,0,0,0,.05,1.8,1.92,1.92,0,0,0,3.14,1.12A6.66,6.66,0,0,0,98.52,216.28Z" transform="translate(-37.15 -41.82)"/><path class="cls-1" d="M208,242.51c0,3.9-3.27,6-6.82,4.28-1.84-.86-2.2-2.56-2.22-4.33,0-3.5,1.94-5.2,5.43-4.79C206.81,238,208,239.54,208,242.51Zm-2.21,0-.23-.13a5.83,5.83,0,0,0-.09-.84,1.86,1.86,0,0,0-2-1.75,1.8,1.8,0,0,0-1.95,1.73,5.66,5.66,0,0,0,.05,2,1.89,1.89,0,0,0,3,1.12A7,7,0,0,0,205.78,242.54Z" transform="translate(-37.15 -41.82)"/><path class="cls-1" d="M167.29,210.85a53.06,53.06,0,0,1,5.56.41,2.85,2.85,0,0,1,2.33,2.78,31.47,31.47,0,0,1,0,4.45c-.1,1.37-.86,2.36-2,2.42-2.26.12-4.54,0-6.87,0v-2.26h4.59a1.78,1.78,0,0,0,1.76-1.45,6,6,0,0,0,0-1c0-2.26-.55-2.82-2.83-2.85-.83,0-1.66,0-2.56,0Z" transform="translate(-37.15 -41.82)"/><rect class="cls-1" x="119.14" y="164.44" width="2" height="15"/><path class="cls-1" d="M209.29,249.39c2.1-.28,2.31-.52,2-2.69v-8.53a2.82,2.82,0,0,0,.57-.17c2.25-.22,2.25-.22,2.25,2v7.09c0,3.37-1.33,4.58-4.82,4.34Z" transform="translate(-37.15 -41.82)"/><path class="cls-1" d="M65.29,251.55v-2.07l.75-.09c1.28-.08,1.91-.84,1.58-2.49a10.62,10.62,0,0,1,0-3.6,25,25,0,0,0,.13-3.46c0-2.24,0-2.24,2.51-1.9v1.24c0,2.67,0,5.35,0,8C70.27,250.62,68.86,251.88,65.29,251.55Z" transform="translate(-37.15 -41.82)"/><path class="cls-1" d="M174.29,232.18v14.75c.3.07.24.13.18.14-2.17.17-2.18.17-2.18-2V233.7c0-1.58,0-1.58,1.55-1.56C174.09,232.14,174.34,232.16,174.29,232.18Z" transform="translate(-37.15 -41.82)"/><path class="cls-1" d="M62.29,247.06V232.31c-.51-.07-.45-.13-.39-.14,2.18-.15,2.18-.15,2.39,2v11.39c-.21,1.58-.21,1.59-1.76,1.56C62.29,247.1,62,247.08,62.29,247.06Z" transform="translate(-37.15 -41.82)"/><rect class="cls-1" x="211.14" y="190.44" width="2" height="15"/><path class="cls-1" d="M88.29,246.94c.33.08.3.12.27.12-2.23.23-2.23.23-2.27-2V233.65c0-1.53,0-1.53,1.54-1.51.28,0,.56,0,.46.05Z" transform="translate(-37.15 -41.82)"/><path class="cls-1" d="M248.29,205.88c2.58-.19,2.58-.19,2,2.06v11.19c.58,1.67.58,1.67-1.14,1.6-.21,0-.41,0-.86-.07Z" transform="translate(-37.15 -41.82)"/><rect class="cls-1" x="188.14" y="207.44" width="2" height="2"/><rect class="cls-1" x="33.14" y="165.44" width="2" height="2"/><rect class="cls-1" x="14.14" y="165.44" width="2" height="2"/><path class="cls-1" d="M76.29,233.28v2.59a7.19,7.19,0,0,1-2.35-.32,1.94,1.94,0,0,1,0-1.74A7,7,0,0,1,76.29,233.28Z" transform="translate(-37.15 -41.82)"/><rect class="cls-1" x="106.14" y="191.44" width="2" height="2"/><path class="cls-1" d="M118.29,232.44a5.57,5.57,0,0,1,2.12.49,1.71,1.71,0,0,1,0,1.67,5.59,5.59,0,0,1-2.13.47Z" transform="translate(-37.15 -41.82)"/><path class="cls-1" d="M203.29,235.9c-.75-.11-1.62,0-2-.37a1.77,1.77,0,0,1,0-1.78c.4-.39,1.27-.29,2-.42Z" transform="translate(-37.15 -41.82)"/><rect class="cls-1" x="167.14" y="191.44" width="2" height="2"/><path class="cls-1" d="M237.29,233v2.23h-2C234.72,233,234.94,232.79,237.29,233Z" transform="translate(-37.15 -41.82)"/><path class="cls-1" d="M239.34,235.27h-1.82l-.25-2.18C239.39,232.61,239.65,232.86,239.34,235.27Z" transform="translate(-37.15 -41.82)"/><rect class="cls-1" x="190.14" y="165.44" width="2" height="2"/><rect class="cls-1" x="193.14" y="165.44" width="2" height="2"/><rect class="cls-1" x="3.14" y="191.44" width="2" height="2"/><rect class="cls-1" x="6.14" y="191.44" width="2" height="2"/><path class="cls-1" d="M115.29,232.48c.76.12,1.63,0,2,.4a1.75,1.75,0,0,1,0,1.77c-.41.38-1.28.28-2,.39Z" transform="translate(-37.15 -41.82)"/></svg>