<svg id="Layer_1" data-name="Layer 1" xmlns="http://www.w3.org/2000/svg" viewBox="0 0 213.49 257.28"><defs><style>.cls-1{fill:#fff;}.cls-2{fill:#fcfcfc;}.cls-3{stroke:#fcfcfc;stroke-miterlimit:10;stroke-width:2px;}</style></defs><title>Glucc_logo4</title><rect class="cls-1" x="105.74" y="233.17" width="2" height="2"/><path class="cls-1" d="M178.88,144.61c-9.16,13.84-29,22.29-48,16.19-18.46-6-33.06-27.26-27.14-51.22-2.17-.92-4.38-1.78-6.5-2.78a39.21,39.21,0,0,1-9.06-6.14,1.45,1.45,0,0,1-.53-1.58A29,29,0,0,1,93.17,87a27.89,27.89,0,0,0,14.75,10.17,28.33,28.33,0,0,0,18-.76c-1.23,1.4-2.45,2.58-3.44,3.93C114.65,111,112.8,122.5,119,134.47c5.53,10.75,14.74,15.95,26.93,15.34a29.46,29.46,0,0,0,14.89-5.1,2.25,2.25,0,0,1,1.45-.37,49.49,49.49,0,0,0,15.22.4C177.87,144.68,178.29,144.66,178.88,144.61Z" transform="translate(-37.13 -14.1)"/><path class="cls-1" d="M144.56,41.48c1.06-.89,2.11-1.81,3.2-2.67a41.43,41.43,0,0,1,13.14-7,1.56,1.56,0,0,1,1.25.08A29.86,29.86,0,0,1,170,43a29.09,29.09,0,0,0-16.86,8.17A32.75,32.75,0,0,0,144,67.77l-.48-2.25a28.65,28.65,0,0,0-23.17-22.65A27.73,27.73,0,0,0,87.89,67.23,65.18,65.18,0,0,0,88,74.62a1.37,1.37,0,0,1-.3.93,33.9,33.9,0,0,0-8.76,12c0,.09-.14.15-.22.22a40.74,40.74,0,0,1,10-48.16C103.53,26.7,128.05,25.12,144.56,41.48Z" transform="translate(-37.13 -14.1)"/><path class="cls-1" d="M164.05,96.37a30.07,30.07,0,0,0,10.54,1.55,27.54,27.54,0,0,0,26.23-24.67c1.09-12.32-5-22.73-16.33-27.94a1.62,1.62,0,0,1-.88-.92,39.09,39.09,0,0,0-5.87-13.76.66.66,0,0,1-.06-.2c2.95-.32,11.16,2.09,16.33,5.21a39.72,39.72,0,0,1,18,22.3,40.47,40.47,0,0,1-26.09,51c.34,2.51.75,5,1,7.53a38.19,38.19,0,0,1-.56,10.4,1.24,1.24,0,0,1-.5.76,27.17,27.17,0,0,1-14.23,3.82C176.76,118.16,173.57,106.69,164.05,96.37Z" transform="translate(-37.13 -14.1)"/><path class="cls-1" d="M144.88,130.28c-2.88,2.26-5.55,4.69-8.54,6.63a83.33,83.33,0,0,1-8.79,4.47,1.15,1.15,0,0,1-1-.06,25.87,25.87,0,0,1-6.26-8.25c13.39-3.16,21.31-11.56,24.28-24.89.09.25.19.52.28.8a41.88,41.88,0,0,0,8.8,16.33c5.21,5.77,11.77,8.25,19.42,8,12-.39,26.14-8.86,28.55-25.33.3-2,.18-4.14.29-6.22a2,2,0,0,1,.41-1.23,50.24,50.24,0,0,0,7.16-9.26c.07-.12.17-.22.48-.62.57,2.57,1.27,4.86,1.58,7.21,1.77,13.41-2.07,25-11.76,34.47a38.58,38.58,0,0,1-27,11.1c-11.4.27-20.5-4.25-27.7-12.92Z" transform="translate(-37.13 -14.1)"/><path class="cls-1" d="M195.37,85.09c-8-9-18.37-11.33-29.89-10.68.75-1.1,1.49-2.09,2.14-3.15,2.56-4.2,4.85-8.51,5.45-13.53,1.14-9.41-1.67-17.49-8.09-24.36a29.35,29.35,0,0,0-37-4.71,2.52,2.52,0,0,1-2.2.36,38.08,38.08,0,0,0-11.4-1.17,3.71,3.71,0,0,1-.54,0c8.52-10.64,25.92-17.57,43.13-11.37a40.51,40.51,0,0,1,22.37,19.32c5.12,9.36,4.9,19.25,2.46,29.37.33.1.66.22,1,.31a40.24,40.24,0,0,1,16.39,9.12,1.43,1.43,0,0,1,.5,1.67C198.8,79.4,196.86,83.46,195.37,85.09Z" transform="translate(-37.13 -14.1)"/><path class="cls-1" d="M123,75.12a30,30,0,0,0-15.38.52C97.07,79,90.65,86.35,87.5,96.68c-3.65,12,.78,21.36,9.67,29.21,1.23,1.08,2.68,1.92,4,2.92a1.89,1.89,0,0,1,.74.93,53.41,53.41,0,0,0,4.14,11.85,3.16,3.16,0,0,1,.1.57c-2-.79-3.85-1.39-5.59-2.26-12.21-6.12-20.36-15.67-23-29.16-2.44-12.55.51-23.91,9.45-33.42A45.63,45.63,0,0,1,105.49,65.2c-.36-1.78-.77-3.51-1.06-5.26a38.62,38.62,0,0,1,.1-13,1.4,1.4,0,0,1,.6-.91,23.53,23.53,0,0,1,10.51-2.22C111.86,55.67,114.6,65.94,123,75.12Z" transform="translate(-37.13 -14.1)"/><path class="cls-1" d="M144.36,97.73a9,9,0,1,1,9-8.92A9,9,0,0,1,144.36,97.73Z" transform="translate(-37.13 -14.1)"/><path class="cls-1" d="M106.27,178.48v5.75c0,1.83,0,3.66,0,5.5,0,1.26.2,1.46,1.41,1.46h32.18c.45,0,.89-.1,1.4-.16a4.53,4.53,0,0,0-2.26-3.12c-1-.57-.87-1.46-.71-2.25.09-.42.69-.87,1.15-1a9.91,9.91,0,0,1,5.57-.49,3.48,3.48,0,0,1,2.8,3.06c.15,1.82-.89,2.67-1.87,4,1.53,0,3,0,4.49,0,.85,0,.81-.8.82-1.39,0-2.47,0-5,0-7.43v-3.8h2.39c0,.32.06.66.06,1q0,5.44,0,10.87a3,3,0,0,1-3,3,36.6,36.6,0,0,1-5.24-.06,32.1,32.1,0,0,0-5,0c-11.44.1-22.88.06-34.32.05-1.52,0-2.19-.56-2.28-2.12-.12-2.44-.09-4.88-.11-7.32,0-1.44.06-2.87,0-4.31,0-1,.27-1.31,1.21-1.18A9.28,9.28,0,0,0,106.27,178.48Zm37.1,11.62a12.78,12.78,0,0,0,1.41-1.86,1.49,1.49,0,0,0-1.21-2.36,19.5,19.5,0,0,0-3,.13Z" transform="translate(-37.13 -14.1)"/><path class="cls-1" d="M143.27,210.42c2.55-.38,2.55-.38,2.55,1.91,0,1.12,0,2.23,0,3.34a1.31,1.31,0,0,0,1.28,1.46,10.7,10.7,0,0,0,2,0c.9-.06,1-.78,1-1.43,0-1.44,0-2.87,0-4.31,0-.35,0-.7,0-1.21.92.31,2-.59,2.54.51a39.9,39.9,0,0,1,5.67-.7c3,0,4.55,1.73,4.68,4.7.1,2.2,1.54,3.19,3.61,2.37a1.66,1.66,0,0,0,.64-1.3c.06-3.34,0-6.67,0-10v-1.24h2.43c0,.39.06.74.06,1.09q0,5.43,0,10.88c0,2.27-.69,2.92-3,2.93h-1.42a3.11,3.11,0,0,1-2.9-1.28c-.94,1.27-2.3,1.27-3.59,1.26-2.36,0-4.71-.22-7.07-.25-1.22,0-2.45.28-3.67.23a16.13,16.13,0,0,1-2.83-.63,5.52,5.52,0,0,1-1.67.58,38.43,38.43,0,0,1-4.8,0,1.92,1.92,0,0,1-2.08-2c0-4.23,0-8.47,0-12.66.11-.09.16-.17.22-.17,2.26-.23,2.26-.23,2.26,2q0,4.59,0,9.16c0,1.3.19,1.47,1.53,1.48,2.55,0,2.55,0,2.55-2.54Zm9,6.67c2.15,0,4.21,0,6.26,0a1.52,1.52,0,0,0,1.1-.58,2.86,2.86,0,0,0-2.17-4.32,12.07,12.07,0,0,0-3.57.49c-1.64.44-1.62.52-1.62,2.18Z" transform="translate(-37.13 -14.1)"/><path class="cls-1" d="M177,178.54h2.45c0,.42.06.81.06,1.2,0,3.42,0,6.83,0,10.25,0,1.37.15,1.52,1.51,1.52h38.54c1.45,0,1.83-.35,1.85-1.69s-.12-2.51-1.37-3.14c-1.43-.73-2.7-.17-3.8.8a.77.77,0,0,1-.24-.07c-1.56-1.39-1.54-1.63.26-2.68a5.11,5.11,0,0,1,7.82,4.37c0,.8-.18,1.87.75,2.1a10.82,10.82,0,0,0,3.55.13c.21,0,.48-.92.49-1.42.07-1.76,0-3.52,0-5.37h2.41c0,2.5.06,5,0,7.46a1.75,1.75,0,0,1-1.82,1.73,30.69,30.69,0,0,1-4.07-.06,7.46,7.46,0,0,1-2-.85,3.5,3.5,0,0,1-2.89,1H179.73a2.78,2.78,0,0,1-2.79-2.78c0-3.83,0-7.66,0-11.5C176.94,179.21,177,178.92,177,178.54Z" transform="translate(-37.13 -14.1)"/><path class="cls-1" d="M216.76,203.54h2.45c0,1.36,0,1.74,0,2.12v9.91c0,1.41.15,1.55,1.54,1.56,2.08,0,4.16,0,6.24,0,1.28,0,1.58-.33,1.62-1.61s0-2.45-1.28-3.1a2.94,2.94,0,0,0-3.48.56,5,5,0,0,1-.42.28l-1.35-1.42c1.5-2,3.49-2.21,5.64-1.79a4.26,4.26,0,0,1,3.42,3.81c.1.6.06,1.23.2,1.81.09.42.33,1.1.58,1.14a21.59,21.59,0,0,0,3.59.17c.17,0,.43-.63.46-1,.08-1,.07-2,.08-3,0-.86,0-1.71,0-2.51.14-.1.19-.18.25-.18,2.21-.26,2.21-.26,2.21,1.93,0,1.11,0,2.22,0,3.33A1.4,1.4,0,0,0,240,217.1c2.61.33,2.84.14,3.29-2.48V204.54h2c0,.32.06.67.06,1v10.87c0,2.25-.71,3-3,2.94-1.41,0-2.91.32-4.05-.88-2,1.42-6.11,1.28-7.23,0a15.94,15.94,0,0,1-3.26.83c-2.79.12-5.59.06-8.39,0-1.8,0-2.62-.69-2.65-2.4C216.72,212.86,216.76,208.73,216.76,203.54Z" transform="translate(-37.13 -14.1)"/><path class="cls-1" d="M81.62,178.54c0,.35.07.64.07.93,0,3.82,0,7.63,0,11.45,0,2.32-.64,3-2.84,3a35.87,35.87,0,0,1-5.29-.06,16,16,0,0,0-4.93,0,20.09,20.09,0,0,1-3.8,0,11.75,11.75,0,0,1-1.72-.3c-.24,1.45,0,3.32-1.52,4.23a12.88,12.88,0,0,1-3.31.92v-2.37c2.2-.59,2.27-.66,2.29-3.13s0-5,0-7.45c0-.4,0-.79,0-1.23H63c0,1.79,0,3.52,0,5.25,0,1.34.41,1.79,1.71,1.81,1.53,0,3.06,0,4.7,0a4.84,4.84,0,0,0-2.28-3.38c-1-.59-.85-1.52-.69-2.33a2,2,0,0,1,1.14-1.09,9.25,9.25,0,0,1,5.5-.49,3.41,3.41,0,0,1,2.38,5.15A16.65,16.65,0,0,1,74,191.59c1.52,0,3,0,4.44,0,.84,0,.8-.82.81-1.43,0-2.56,0-5.12,0-7.68v-3.92Zm-9.75,11.6a14.56,14.56,0,0,0,1.5-2.21,1.3,1.3,0,0,0-.74-1.87,4.5,4.5,0,0,0-3.46.09Z" transform="translate(-37.13 -14.1)"/><path class="cls-1" d="M44,218.12a14.66,14.66,0,0,1-3,.49c-2.65-.15-3.95-1.73-3.91-4.53s1.44-4.19,4-4.34c.84,0,1.69,0,2.56,0l.22-1.2h2.46c0,2.13,0,4.2,0,6.26a5.3,5.3,0,0,0,.08,1.55,1.32,1.32,0,0,0,.84.81c1,.1,2.06,0,3.11,0-1.16-3.61-.68-5.7,1.54-6.9a5.8,5.8,0,0,1,7,1.42l-1.29,1.5a17.46,17.46,0,0,0-1.91-1,2.33,2.33,0,0,0-2.67.53,2.57,2.57,0,0,0-.4,2.91,2.23,2.23,0,0,0,2.28,1.6c1.4-.05,2.81,0,4.3,0v2.33H46.69C45.47,219.54,44.37,219.32,44,218.12Zm.17-6c-.78,0-1.45,0-2.12,0-1.32.08-1.86.77-1.83,2.25a1.7,1.7,0,0,0,1.82,1.9,1.83,1.83,0,0,0,2.12-1.88C44.22,213.68,44.18,213,44.18,212.1Z" transform="translate(-37.13 -14.1)"/><path class="cls-1" d="M126.15,216.54c-1.23-2.89-.79-5.09,1.16-6.26A5.33,5.33,0,0,1,134,211.4l-1.15,1.22a14,14,0,0,0-2.87-.84c-1.23-.08-2,.91-2,2.25a2.37,2.37,0,0,0,2.06,2.51c.72,0,1.44,0,2.16,0h2.1v2.1c-.29,0-.59.06-.89.06-3.57,0-7.14,0-10.71,0-1.15,0-2.23-.15-2.51-1.21a17.92,17.92,0,0,1-3.42.23c-2.08-.26-3-1.72-3-4.2,0-2.12,1.2-3.59,3.15-3.81a26.7,26.7,0,0,1,3,0l.18-1.15h2.33c0,1.9,0,3.77,0,5.65,0,2.43-.2,2.38,2.34,2.35Zm-6.78-4.44c-.77,0-1.41,0-2,0-1.36.06-1.92.72-1.91,2.17,0,1.27.57,1.9,1.74,2a1.85,1.85,0,0,0,2.2-1.91C119.41,213.65,119.37,212.94,119.37,212.1Z" transform="translate(-37.13 -14.1)"/><path class="cls-1" d="M37.94,185.54H40.3c0,1.26,0,2.5,0,3.74,0,1.51.19,1.68,1.66,1.68h5.86a26.65,26.65,0,0,1,0-4c.34-2.13,2.22-3.38,4.53-3.26,2.54.14,4,1.39,4.26,3.68a10.72,10.72,0,0,1,.05,2,4,4,0,0,1-4,3.73c-4.22.07-8.45,0-12.68,0-1.24,0-2-.62-2.05-1.77C37.87,189.46,37.94,187.53,37.94,185.54Zm16.32,2.85c0-.21,0-.43,0-.64a2,2,0,0,0-2.11-1.95,2,2,0,0,0-2,2.11c-.1,1.78.39,2.69,1.54,2.87C53.41,191.06,54.27,190.24,54.26,188.39Z" transform="translate(-37.13 -14.1)"/><path class="cls-1" d="M237.27,181.75c.27-.12.34-.17.41-.17,2.2-.23,2.2-.23,2.21,1.91q0,3.76,0,7.51c0,.06.05.12.13.3.74,0,1.55,0,2.34,0s.88-.71.88-1.35v-11.4h2.52a9.64,9.64,0,0,1,0,1.86,24,24,0,0,0-.28,5.55c.56,6.2.82,7.59-2.7,7.59-2.79,0-5.59,0-8.38,0h-1.17v-3h4Z" transform="translate(-37.13 -14.1)"/><path class="cls-1" d="M72.27,223.74v-2c3.06-.68,2.33-.83,2.5-6.26,0-1.26,0-2.52,0-3.77-.06-1.09.11-1.66,1.26-1.48a8.79,8.79,0,0,0,1.28,0v4.54c0,2,1.82,3.23,3.5,2.22a1.73,1.73,0,0,0,.48-1.28c0-3.33,0-6.67,0-10v-1.23h2.84c0,4.46,0,8.86,0,13.25a1.58,1.58,0,0,1-1.6,1.52c-1.71.07-3.42,0-5.16,0C76.83,223.18,75.86,224.12,72.27,223.74Z" transform="translate(-37.13 -14.1)"/><path class="cls-1" d="M98.27,223.76v-2.18c1,0,1.91,0,2.85,0,1.38-.06,1.88-.68,1.74-2.11a34,34,0,0,1-4-.35,1.18,1.18,0,0,1-.42-.16c-2.21-1.38-2.14-3.47-1.83-5.51a3.89,3.89,0,0,1,3-3.4c3.45-.89,5.87,1,5.88,4.52,0,2.61,0,5.23,0,7.85a1.12,1.12,0,0,1-.91,1.06A32.56,32.56,0,0,1,98.27,223.76ZM103,217.1c0-.84,0-1.55,0-2.26a6.12,6.12,0,0,0,0-1,1.83,1.83,0,0,0-2.12-1.77c-1.18.09-1.94,1.14-2,2.67s.58,2.22,1.83,2.31C101.45,217.15,102.16,217.1,103,217.1Z" transform="translate(-37.13 -14.1)"/><path class="cls-1" d="M184.27,223.72v-2.14c.93,0,1.85,0,2.76,0,1.42,0,1.89-.57,1.89-2.19h-2.09c-2.28,0-3.57-.8-4.12-2.44-.76-2.29-.11-5.07,1.45-6.23a5.48,5.48,0,0,1,5.61-.12,4.09,4.09,0,0,1,1.7,3.54c.06,2.05.05,4.1,0,6.14a3.17,3.17,0,0,1-3,3.42C187.1,223.82,185.73,223.72,184.27,223.72Zm4.72-6.64c0-1,0-1.92,0-2.84-.06-1.37-.74-2.11-1.91-2.14s-2.05.86-2.2,2.42.42,2.4,1.56,2.54A21.45,21.45,0,0,0,189,217.08Z" transform="translate(-37.13 -14.1)"/><path class="cls-1" d="M93,192.23c-2.54,1.24-.88,3.54-1.58,5.31H89.12a39.77,39.77,0,0,1,.06-4.76,2.94,2.94,0,0,1,1.28-1.72,2.59,2.59,0,0,0,1.33-2.45c-.07-3.75,2.3-5.59,6-4.71a3.45,3.45,0,0,1,2.55,2.11,6.55,6.55,0,0,1,0,5c-.91,2.27-4.41,3.14-6.67,1.71C93.45,192.59,93.22,192.41,93,192.23Zm5.53-3.67-.2-.1c0-.25,0-.5,0-.74a1.91,1.91,0,0,0-1.9-1.92,1.83,1.83,0,0,0-2,1.85,6,6,0,0,0,0,1.8,1.92,1.92,0,0,0,3.14,1.12A6.66,6.66,0,0,0,98.5,188.56Z" transform="translate(-37.13 -14.1)"/><path class="cls-1" d="M208,214.79c0,3.89-3.27,6-6.82,4.28-1.84-.87-2.2-2.56-2.22-4.33,0-3.5,1.94-5.2,5.43-4.79C206.79,210.23,208,211.82,208,214.79Zm-2.21,0-.22-.13a8.2,8.2,0,0,0-.1-.85,1.85,1.85,0,0,0-1.95-1.74,1.8,1.8,0,0,0-2,1.73,5.6,5.6,0,0,0,.05,2,1.9,1.9,0,0,0,3,1.13A7.06,7.06,0,0,0,205.76,214.82Z" transform="translate(-37.13 -14.1)"/><path class="cls-1" d="M167.27,183.12c1.89.13,3.75.11,5.56.42a2.85,2.85,0,0,1,2.33,2.78,31.33,31.33,0,0,1,0,4.44c-.1,1.38-.86,2.37-2,2.43-2.26.12-4.54,0-6.87,0V191h4.59a1.77,1.77,0,0,0,1.76-1.44,6.07,6.07,0,0,0,0-1c0-2.26-.55-2.83-2.83-2.86h-2.56Z" transform="translate(-37.13 -14.1)"/><rect class="cls-1" x="119.14" y="164.44" width="2" height="15"/><path class="cls-1" d="M209.27,221.66c2.1-.27,2.31-.51,2-2.68v-8.53a4,4,0,0,0,.57-.17c2.25-.22,2.25-.22,2.25,2v7.1c0,3.36-1.33,4.58-4.82,4.34Z" transform="translate(-37.13 -14.1)"/><path class="cls-1" d="M65.27,223.82v-2.06l.75-.09c1.28-.08,1.91-.84,1.58-2.5a10.56,10.56,0,0,1,0-3.59,25,25,0,0,0,.13-3.46c0-2.25,0-2.25,2.51-1.9v1.24c0,2.67,0,5.34,0,8C70.25,222.9,68.84,224.15,65.27,223.82Z" transform="translate(-37.13 -14.1)"/><path class="cls-1" d="M174.27,204.46v14.75c.3.07.24.13.18.13-2.17.18-2.17.18-2.18-2V206c0-1.58,0-1.58,1.55-1.56C174.07,204.42,174.32,204.44,174.27,204.46Z" transform="translate(-37.13 -14.1)"/><path class="cls-1" d="M62.27,219.34V204.58c-.5-.06-.45-.13-.38-.13,2.17-.16,2.17-.16,2.38,2v11.39c-.21,1.58-.21,1.58-1.76,1.56C62.27,219.38,62,219.36,62.27,219.34Z" transform="translate(-37.13 -14.1)"/><rect class="cls-1" x="211.14" y="190.44" width="2" height="15"/><path class="cls-1" d="M88.27,219.22c.33.08.3.12.27.12-2.23.23-2.23.23-2.27-2V205.93c0-1.53,0-1.53,1.54-1.51.28,0,.56,0,.46.05Z" transform="translate(-37.13 -14.1)"/><path class="cls-1" d="M248.27,178.16c2.58-.2,2.58-.2,2,2.06V191.4c.58,1.68.58,1.68-1.14,1.61l-.86-.07Z" transform="translate(-37.13 -14.1)"/><rect class="cls-1" x="33.14" y="165.44" width="2" height="2"/><rect class="cls-1" x="14.14" y="165.44" width="2" height="2"/><path class="cls-1" d="M76.27,205.56v2.58a6.93,6.93,0,0,1-2.35-.32,1.91,1.91,0,0,1,0-1.73A7,7,0,0,1,76.27,205.56Z" transform="translate(-37.13 -14.1)"/><rect class="cls-1" x="106.14" y="191.44" width="2" height="2"/><path class="cls-1" d="M118.27,204.72a5.39,5.39,0,0,1,2.12.49,1.71,1.71,0,0,1,0,1.67,5.59,5.59,0,0,1-2.13.47Z" transform="translate(-37.13 -14.1)"/><path class="cls-1" d="M203.27,208.17c-.75-.1-1.62,0-2-.36a1.77,1.77,0,0,1,0-1.78c.4-.39,1.27-.29,2-.42Z" transform="translate(-37.13 -14.1)"/><rect class="cls-1" x="167.14" y="191.44" width="2" height="2"/><path class="cls-1" d="M237.27,205.32v2.22h-2C234.7,205.31,234.92,205.06,237.27,205.32Z" transform="translate(-37.13 -14.1)"/><path class="cls-1" d="M239.32,207.54H237.5l-.25-2.17C239.37,204.89,239.63,205.14,239.32,207.54Z" transform="translate(-37.13 -14.1)"/><rect class="cls-1" x="190.14" y="165.44" width="2" height="2"/><rect class="cls-1" x="193.14" y="165.44" width="2" height="2"/><rect class="cls-1" x="3.14" y="191.44" width="2" height="2"/><rect class="cls-1" x="6.14" y="191.44" width="2" height="2"/><path class="cls-1" d="M115.27,204.75c.76.13,1.63,0,2,.4a1.77,1.77,0,0,1,0,1.78c-.41.38-1.28.27-2,.39Z" transform="translate(-37.13 -14.1)"/><path class="cls-2" d="M41.89,270.52a6.82,6.82,0,0,1-2.78-2.32,5.57,5.57,0,0,1-1-3.14,64.35,64.35,0,0,1,.83-6.83l4,.22c-.15,1-.31,2.2-.47,3.52a25.82,25.82,0,0,0-.25,2.58,2.53,2.53,0,0,0,.43,1.4A3.35,3.35,0,0,0,44,267a4.09,4.09,0,0,0,1.85.41,3.75,3.75,0,0,0,1.87-.44,2.9,2.9,0,0,0,1.13-1.09,2.65,2.65,0,0,0,.36-1.28V247.88H53.5v17.2a5.88,5.88,0,0,1-.86,3,6.32,6.32,0,0,1-2.56,2.36,8.52,8.52,0,0,1-4.09.91A9.39,9.39,0,0,1,41.89,270.52Z" transform="translate(-37.13 -14.1)"/><path class="cls-2" d="M64,261.21v4H57.16V247.88h4.32v13.33Z" transform="translate(-37.13 -14.1)"/><path class="cls-2" d="M83.28,261.21v4H81.52A.92.92,0,0,1,81,265a1.12,1.12,0,0,1-.38-.52v.71H64v-4h3.74a10.66,10.66,0,0,1-.33-2.38,13.51,13.51,0,0,1,.34-2.74,27.65,27.65,0,0,1,.74-2.76,9.19,9.19,0,0,1,2.16-.64A17.38,17.38,0,0,1,74,252.4a9.16,9.16,0,0,1,4.42.83,3.62,3.62,0,0,1,1.8,2.14,13.13,13.13,0,0,1,.38,3.51v1.33a2,2,0,0,0,.41.73.76.76,0,0,0,.52.27Zm-11.59-1.1a8.5,8.5,0,0,0,.24,1.1h4.34v-2.43a6.65,6.65,0,0,0-.11-1.36,1.36,1.36,0,0,0-.69-.81,3.75,3.75,0,0,0-1.84-.34,8.07,8.07,0,0,0-1.8.2,13.27,13.27,0,0,0-.25,2.36A7,7,0,0,0,71.69,260.11Z" transform="translate(-37.13 -14.1)"/><path class="cls-2" d="M97.34,261.21v4H83.28v-4h2.78a12,12,0,0,1-.3-2.53,6.11,6.11,0,0,1,1.18-4,5.87,5.87,0,0,1,2.65-1.9,8.36,8.36,0,0,1,2.65-.49,10.64,10.64,0,0,1,2.17.27,11.38,11.38,0,0,1,2.17.68l-.2,4.14a10.09,10.09,0,0,0-3.84-1.15q-2.46,0-2.46,2.61a3.46,3.46,0,0,0,.88,2.38Z" transform="translate(-37.13 -14.1)"/><path class="cls-2" d="M113.3,247.88v17.28H99.09v-4h3.14v-9.94h4.32v9.94H109V247.88Zm-5.8.43-5.75,1.13-.3-1.43,1.11-.28a2.82,2.82,0,0,1-1.06-2.21,2.64,2.64,0,0,1,.79-1.9,2.74,2.74,0,0,1,2-.81,4.19,4.19,0,0,1,2,.6L106,245.3a1.47,1.47,0,0,0-1-.35,1.07,1.07,0,0,0-.85.35,1.25,1.25,0,0,0,.3,1.93l2.63-.7Z" transform="translate(-37.13 -14.1)"/><path class="cls-2" d="M116.69,247.88H121v17.28h-4.32Z" transform="translate(-37.13 -14.1)"/><path class="cls-2" d="M148.25,265.16h-3a5.9,5.9,0,0,1-.89,3,6.46,6.46,0,0,1-2.56,2.33,8.54,8.54,0,0,1-4.06.9,9.42,9.42,0,0,1-4.1-.86,6.88,6.88,0,0,1-2.78-2.32,5.56,5.56,0,0,1-1-3.14,63.22,63.22,0,0,1,.82-6.83l4.05.22c-.15,1-.31,2.2-.48,3.52a25.82,25.82,0,0,0-.25,2.58,2.46,2.46,0,0,0,.44,1.4,3.25,3.25,0,0,0,1.25,1.08,4.12,4.12,0,0,0,1.85.41,3.75,3.75,0,0,0,1.87-.44,2.83,2.83,0,0,0,1.13-1.09,2.65,2.65,0,0,0,.36-1.28V247.88h4.32v13.33h3Z" transform="translate(-37.13 -14.1)"/><path class="cls-2" d="M159.77,252.83a2.79,2.79,0,0,1,1.44,1.34,5.58,5.58,0,0,1,.43,2.22v8.77H148.25v-4h9.07v-3.33a2.52,2.52,0,0,0-.33-1.46,1.6,1.6,0,0,0-1.35-.45l-1.59,0h-3.81l-.1-2.78a19.57,19.57,0,0,1,3.26-.62,29.15,29.15,0,0,1,3.44-.24A7.19,7.19,0,0,1,159.77,252.83Zm-5.47,14.34h3.9v4h-3.9Z" transform="translate(-37.13 -14.1)"/><path class="cls-2" d="M164.15,271.28v-3.89l.37,0c.91,0,1.36-.69,1.36-2.06V252.58h4.32v12.15a9.46,9.46,0,0,1-1.06,4.85,3.46,3.46,0,0,1-3.18,1.78C165.59,271.36,165,271.33,164.15,271.28Z" transform="translate(-37.13 -14.1)"/><path class="cls-2" d="M194.5,261.21v4h-9.21a15,15,0,0,1-4.2-.46,3.74,3.74,0,0,1-2.28-1.87,9.14,9.14,0,0,1-.78-4.28,8.44,8.44,0,0,1,.73-4,3.69,3.69,0,0,1,2.31-1.77,17.8,17.8,0,0,1,4.59-.45c1.12,0,2.35,0,3.69.11s2.24.16,2.69.24v8.51ZM182,246.45h3v3.82h-3Zm.69,13.9a1.46,1.46,0,0,0,.94.71,7.6,7.6,0,0,0,1.73.15h2.36v-4.84c-1.05-.05-1.75-.08-2.11-.08a10.53,10.53,0,0,0-2,.14,1.42,1.42,0,0,0-1,.63,2.88,2.88,0,0,0-.31,1.52A3.53,3.53,0,0,0,182.69,260.35Zm3.58-13.9h3v3.82h-3Z" transform="translate(-37.13 -14.1)"/><path class="cls-2" d="M194.5,261.21h3s0-.27-.1-.94a13.81,13.81,0,0,1-.15-2.07,6,6,0,0,1,.83-3.39,4.35,4.35,0,0,1,2.45-1.68,15.29,15.29,0,0,1,4.23-.48,31.18,31.18,0,0,1,3.59.15l1.71.2v12.16H194.5Zm5.75-14.76h3v3.82h-3Zm5.5,14.76v-4.67l-1.33-.05a6.17,6.17,0,0,0-1.77.18,1.18,1.18,0,0,0-.75.74,5.57,5.57,0,0,0-.22,1.87,8.28,8.28,0,0,0,.08,1.4c.05.24.08.42.1.53Zm-1.23-14.76h3v3.82h-3Z" transform="translate(-37.13 -14.1)"/><path class="cls-2" d="M220,261.21v4h-6.85V247.88h4.31v13.33Z" transform="translate(-37.13 -14.1)"/><path class="cls-2" d="M241,261.21v4H220v-4h1.93V247.88h4.32v7.76a22.11,22.11,0,0,1,2-1.84,6.69,6.69,0,0,1,2-1.06,8.77,8.77,0,0,1,2.79-.39,5.87,5.87,0,0,1,4.08,1.21,4.86,4.86,0,0,1,1.6,2.53,13.92,13.92,0,0,1,.27,2.77v2.35Zm-11.31-4a8.44,8.44,0,0,0-1.69,1.72c-.37.54-.87,1.31-1.49,2.29h8.23V260a5.81,5.81,0,0,0-.54-2.52,2.07,2.07,0,0,0-2.09-1.15A3.78,3.78,0,0,0,229.67,257.2Z" transform="translate(-37.13 -14.1)"/><path class="cls-2" d="M249,252.6v12.56H241v-4h3.74V252.6Zm-4,14.57h3.89v4H245Z" transform="translate(-37.13 -14.1)"/><line class="cls-3" y1="222.78" x2="213.49" y2="222.78"/></svg>